<?xml version="1.0" encoding="UTF-8" standalone="no"?>
<!-- Created with Inkscape (http://www.inkscape.org/) -->

<svg
   width="1024.0px"
   height="1024.0px"
   viewBox="0 0 1024.0 1024.0"
   version="1.1"
   id="SVGRoot"
   sodipodi:docname="logo.svg"
   inkscape:version="1.2.1 (9c6d41e410, 2022-07-14)"
   inkscape:export-filename="logo.png"
   inkscape:export-xdpi="96"
   inkscape:export-ydpi="96"
   xmlns:inkscape="http://www.inkscape.org/namespaces/inkscape"
   xmlns:sodipodi="http://sodipodi.sourceforge.net/DTD/sodipodi-0.dtd"
   xmlns:xlink="http://www.w3.org/1999/xlink"
   xmlns="http://www.w3.org/2000/svg"
   xmlns:svg="http://www.w3.org/2000/svg">
  <sodipodi:namedview
     id="namedview311"
     pagecolor="#505050"
     bordercolor="#eeeeee"
     borderopacity="1"
     inkscape:showpageshadow="0"
     inkscape:pageopacity="0"
     inkscape:pagecheckerboard="0"
     inkscape:deskcolor="#505050"
     inkscape:document-units="px"
     showgrid="true"
     inkscape:zoom="0.73851712"
     inkscape:cx="440.74808"
     inkscape:cy="486.10925"
     inkscape:window-width="1920"
     inkscape:window-height="1009"
     inkscape:window-x="-8"
     inkscape:window-y="-8"
     inkscape:window-maximized="1"
     inkscape:current-layer="g671">
    <inkscape:grid
       type="xygrid"
       id="grid434" />
  </sodipodi:namedview>
  <defs
     id="defs306">
    <clipPath
       clipPathUnits="userSpaceOnUse"
       id="clipPath673">
      <use
         x="0"
         y="0"
         xlink:href="#g669"
         id="use675" />
    </clipPath>
  </defs>
  <g
     inkscape:label="Layer 1"
     inkscape:groupmode="layer"
     id="layer1">
    <g
       id="g671"
       clip-path="url(#clipPath673)">
      <g
         inkscape:label="Clip"
         id="g669">
        <ellipse
           style="fill:#ffffff"
           id="path493"
           cx="512"
           cy="512"
           rx="423.82227"
           ry="404.86536" />
      </g>
      <path
         style="fill:#ff0000;fill-opacity:1;stroke:none;stroke-width:1px;stroke-linecap:butt;stroke-linejoin:miter;stroke-opacity:1"
         d="M 635.05637,123.21989 C 371.01374,477.98486 609.32914,939.72094 609.32914,939.72094 l -194.98532,6.77032 -5.41626,-870.663637 z"
         id="path985"
         sodipodi:nodetypes="ccccc" />
      <rect
         style="fill:#ff0000;stroke-width:0.815701"
         id="rect657"
         width="438.71698"
         height="823.2713"
         x="83.952026"
         y="96.138596"
         ry="0" />
    </g>
    <g
       aria-label="VBAN- UI"
       id="text786-2"
       style="font-size:192px;line-height:1.25;font-family:'Carter One';-inkscape-font-specification:'Carter One'">
      <path
         d="m 172.04977,571.26868 q -0.46875,1.21875 -0.9375,2.34375 -0.375,1.125 -1.03125,2.0625 -0.65625,0.9375 -1.6875,1.6875 -0.9375,0.75 -2.4375,1.21875 -5.90625,1.875 -11.71875,3.1875 -5.8125,1.40625 -11.71875,3.375 -1.125,0.375 -1.96875,0.5625 -0.84375,0.1875 -1.59375,0.1875 -1.6875,0 -2.4375,-0.84375 -0.75,-0.84375 -1.125,-2.15625 l -32.0625,-127.5 q -0.75,-2.4375 -0.75,-4.03125 0,-2.0625 1.3125,-3.375 1.3125,-1.40625 4.21875,-2.25 3,-0.9375 7.59375,-1.6875 4.6875,-0.75 11.4375,-1.6875 3.28125,-0.46875 5.53125,-0.65625 2.25,-0.28125 3.84375,-0.28125 2.71875,0 3.5625,0.9375 0.9375,0.84375 1.6875,2.71875 l 17.90625,77.4375 25.21875,-71.15625 q 0.5625,-1.5 0.9375,-2.4375 0.46875,-0.9375 1.59375,-1.59375 1.21875,-0.75 3.5625,-1.40625 2.4375,-0.75 6.9375,-1.6875 7.03125,-1.5 11.625,-2.15625 4.59375,-0.65625 7.40625,-0.65625 3.5625,0 4.59375,0.84375 1.125,0.84375 1.125,2.4375 0.0937,0.65625 -0.28125,1.40625 -0.28125,0.65625 -0.65625,1.6875 z"
         id="path869" />
      <path
         d="m 235.70602,578.29993 q -1.875,-0.46875 -2.53125,-1.40625 -0.65625,-1.03125 -0.65625,-2.25 0,-0.28125 0,-0.375 0.0937,-0.0937 0.0937,-0.375 0.75,-10.125 1.59375,-21.1875 0.9375,-11.15625 1.96875,-22.59375 1.03125,-11.53125 2.0625,-22.96875 1.03125,-11.4375 2.0625,-22.21875 h -0.0937 q -0.375,0 -2.15625,0.65625 -1.6875,0.5625 -3.9375,1.3125 -2.15625,0.65625 -4.40625,1.21875 -2.25,0.5625 -3.65625,0.5625 -1.21875,0 -1.78125,-0.9375 -0.46875,-0.9375 -0.46875,-2.0625 0,-0.84375 0.28125,-1.59375 2.53125,-7.3125 5.25,-13.6875 2.71875,-6.375 5.4375,-13.125 7.125,-3.84375 14.8125,-6.65625 7.6875,-2.90625 15.46875,-4.78125 7.875,-1.96875 15.65625,-2.90625 7.78125,-1.03125 15.09375,-1.03125 10.21875,0 19.21875,2.15625 9.09375,2.15625 15.75,6.5625 6.75,4.3125 10.59375,10.96875 3.9375,6.5625 3.9375,15.46875 0,3.84375 -1.6875,7.40625 -1.6875,3.5625 -4.40625,6.84375 -2.625,3.1875 -5.90625,6 -3.28125,2.71875 -6.46875,4.96875 4.5,3.28125 8.0625,6 3.65625,2.625 6.1875,5.53125 2.53125,2.90625 3.84375,6.5625 1.3125,3.5625 1.3125,8.71875 0,7.875 -2.8125,15.09375 -2.71875,7.125 -7.59375,13.3125 -4.78125,6.09375 -11.4375,11.0625 -6.5625,4.96875 -14.34375,8.53125 -7.6875,3.46875 -16.3125,5.34375 -8.53125,1.96875 -17.25,1.96875 -3.1875,0 -8.53125,-0.65625 -5.34375,-0.65625 -11.25,-1.59375 -5.8125,-0.84375 -11.53125,-1.96875 -5.625,-1.03125 -9.46875,-1.875 z m 43.21875,-102.84375 q -1.78125,11.0625 -3,22.5 -1.21875,11.34375 -2.15625,22.125 -0.84375,10.6875 -1.5,20.34375 -0.65625,9.65625 -1.3125,17.25 3.75,0 8.0625,-0.375 4.40625,-0.46875 8.71875,-1.5 4.3125,-1.03125 8.34375,-2.625 4.125,-1.6875 7.21875,-4.125 3.09375,-2.4375 4.96875,-5.71875 1.875,-3.375 1.875,-7.6875 0,-2.625 -1.59375,-4.59375 -1.59375,-2.0625 -4.125,-3.46875 -2.4375,-1.5 -5.4375,-2.4375 -3,-1.03125 -5.90625,-1.59375 -2.8125,-0.65625 -5.25,-0.9375 -2.34375,-0.375 -3.5625,-0.5625 -1.3125,-0.1875 -1.6875,-0.9375 -0.375,-0.75 -0.375,-1.875 0,-1.21875 1.5,-3.65625 1.5,-2.4375 4.125,-6.65625 l 3.9375,-6.28125 q 2.53125,-0.9375 5.4375,-2.34375 3,-1.40625 5.53125,-3.1875 2.53125,-1.875 4.21875,-4.125 1.6875,-2.34375 1.6875,-5.0625 0,-7.6875 -3.375,-11.71875 -3.28125,-4.125 -9.5625,-4.125 -7.125,0 -16.78125,3.375 z"
         id="path871" />
      <path
         d="m 352.42477,572.67493 q 1.21875,-2.4375 2.53125,-5.4375 1.3125,-3.09375 2.4375,-6.65625 l 2.53125,-6.1875 q -1.6875,-2.53125 -3.46875,-5.4375 -1.6875,-3 -3.09375,-6.09375 -1.40625,-3.09375 -2.34375,-6.1875 -0.84375,-3.09375 -0.84375,-6 0,-0.1875 1.40625,-0.28125 1.5,-0.1875 3.65625,-0.28125 2.25,-0.0937 4.78125,-0.0937 2.625,-0.0937 4.78125,-0.0937 2.25,-0.0937 3.65625,-0.0937 1.5,-0.0937 1.5,-0.0937 2.15625,-5.625 4.21875,-10.6875 2.0625,-5.0625 4.125,-10.21875 2.0625,-5.15625 4.125,-10.5 2.0625,-5.4375 4.125,-11.625 3.9375,-11.625 7.6875,-20.4375 3.75,-8.8125 7.03125,-16.40625 0.375,-0.9375 1.21875,-1.6875 0.9375,-0.84375 1.96875,-1.40625 1.03125,-0.5625 1.96875,-0.9375 1.03125,-0.375 1.59375,-0.5625 0.375,-0.0937 2.8125,-0.84375 2.53125,-0.75 5.71875,-1.59375 3.1875,-0.84375 6.28125,-1.5 3.1875,-0.65625 5.0625,-0.65625 h 1.6875 q 1.5,0 2.8125,0.75 1.40625,0.65625 1.875,2.71875 4.5,11.53125 9.5625,25.21875 5.15625,13.59375 10.03125,30 2.625,8.8125 5.15625,16.6875 2.53125,7.875 5.0625,15.375 2.53125,7.5 5.0625,15 2.625,7.5 5.34375,15.46875 0.84375,3.375 1.6875,5.34375 0.9375,1.96875 1.6875,3.09375 0.75,1.125 1.21875,1.6875 0.46875,0.46875 0.46875,1.03125 0,0.5625 -1.78125,1.125 l -20.15625,6.5625 q -2.25,0.84375 -4.59375,1.6875 -2.34375,0.84375 -4.40625,1.5 -2.0625,0.65625 -3.65625,1.03125 -1.5,0.46875 -2.15625,0.46875 h -0.5625 q -1.3125,0 -1.875,-0.84375 -0.5625,-0.75 -0.75,-1.5 -0.9375,-3.09375 -1.875,-5.53125 -0.9375,-2.53125 -1.875,-4.96875 -0.84375,-2.53125 -1.78125,-5.34375 -0.84375,-2.8125 -1.6875,-6.65625 -0.1875,-0.46875 -1.03125,-0.75 -0.84375,-0.375 -2.0625,-0.5625 -1.125,-0.1875 -2.4375,-0.1875 -1.3125,-0.0937 -2.4375,-0.0937 -3.5625,0 -5.8125,0.0937 -2.15625,0 -3.84375,0.0937 -1.6875,0 -3.28125,0.0937 -1.5,0 -3.75,0 -2.71875,0 -5.625,0 -2.8125,-0.0937 -5.15625,-0.1875 l -5.34375,-0.1875 q -2.4375,6.75 -4.875,12.65625 -2.4375,5.90625 -5.25,12.1875 -0.1875,0.75 -0.9375,1.21875 -0.65625,0.46875 -1.40625,0.46875 -0.5625,0 -0.65625,-0.0937 -9.09375,-3.28125 -15.28125,-6.46875 -6.1875,-3.1875 -10.78125,-6.1875 z m 63.1875,-84.28125 q -2.25,8.34375 -4.5,15.1875 -2.15625,6.75 -4.03125,12 -1.78125,5.25 -3.09375,8.90625 -1.3125,3.5625 -1.875,5.53125 v 0.84375 q 0,0.5625 -0.0937,0.75 h 22.5 q -1.03125,-4.59375 -2.25,-9.28125 -1.125,-4.6875 -2.25,-9.84375 -1.125,-5.15625 -2.25,-11.0625 -1.125,-5.90625 -2.15625,-13.03125 z"
         id="path873" />
      <path
         d="m 568.98727,453.89368 q 0.75,-3.09375 1.3125,-4.5 0.5625,-1.40625 2.4375,-1.875 l 24.28125,-5.71875 q 1.125,-0.375 2.4375,-0.375 1.21875,0 1.78125,0.84375 0.5625,0.84375 0.5625,3.1875 -0.5625,2.25 -0.9375,6.9375 -0.375,4.59375 -0.5625,10.125 -0.1875,5.53125 -0.28125,11.15625 -0.0937,5.53125 -0.0937,9.65625 v 5.15625 q 0,5.8125 -0.0937,12.65625 -0.0937,6.84375 -0.28125,13.875 -0.0937,7.03125 -0.28125,13.875 -0.1875,6.84375 -0.375,12.84375 l -0.5625,16.03125 q -0.0937,0.46875 -0.0937,0.84375 0,0.375 0,0.75 v 1.40625 q 0,1.59375 0,2.71875 0.0937,1.03125 0.0937,1.875 0,0.9375 -0.1875,1.6875 -0.0937,0.75 -0.65625,1.5 -0.5625,0.65625 -1.59375,1.40625 -0.9375,0.75 -2.625,1.875 -0.9375,0.65625 -3.09375,1.96875 -2.15625,1.21875 -4.78125,2.8125 -2.625,1.59375 -5.4375,3.28125 -2.8125,1.6875 -5.15625,3 -2.34375,1.40625 -3.84375,2.25 -1.40625,0.84375 -1.40625,0.84375 l -43.5,-66.9375 -3.9375,54.84375 q -0.0937,0.75 -0.375,1.59375 -0.1875,0.84375 -1.21875,1.3125 -0.84375,0.375 -2.90625,1.21875 -2.0625,0.75 -4.875,1.78125 -2.71875,1.03125 -5.8125,2.0625 -3,1.125 -5.71875,1.96875 -2.71875,0.9375 -4.875,1.5 -2.0625,0.5625 -2.8125,0.5625 -1.40625,0 -2.34375,-0.75 -0.9375,-0.75 -0.9375,-2.71875 0.9375,-11.71875 2.15625,-25.5 1.21875,-13.875 2.34375,-28.40625 1.125,-14.53125 2.0625,-28.96875 1.03125,-14.53125 1.6875,-27.5625 0,-0.375 -1.21875,-2.4375 -1.125,-2.15625 -2.625,-4.59375 -1.40625,-2.53125 -2.625,-4.6875 -1.125,-2.25 -1.125,-2.8125 0,-0.65625 0.65625,-1.21875 0.75,-0.5625 2.34375,-1.5 l 25.03125,-14.15625 q 0.28125,0 0.75,-0.0937 0.5625,-0.0937 0.9375,-0.0937 1.03125,0 1.59375,0.28125 0.65625,0.1875 1.3125,1.40625 l 45.46875,82.03125 z"
         id="path875" />
      <path
         d="m 665.83102,500.29993 q 4.78125,-0.1875 9.28125,-0.28125 4.59375,-0.1875 8.34375,-0.28125 3.75,-0.1875 6.46875,-0.28125 2.8125,-0.1875 3.9375,-0.1875 0.75,0 1.6875,0.5625 0.9375,0.5625 0.9375,2.15625 0,0.84375 -0.9375,3.09375 -0.84375,2.25 -2.25,5.53125 -1.40625,3.1875 -3.1875,7.21875 -1.78125,3.9375 -3.65625,8.25 -0.375,0.84375 -0.75,1.40625 -0.28125,0.5625 -0.84375,1.03125 -0.46875,0.375 -1.3125,0.5625 -0.84375,0.1875 -2.25,0.1875 -8.4375,0.1875 -16.875,0.375 -8.4375,0.0937 -15.9375,0.28125 -7.40625,0.0937 -13.40625,0.1875 -6,0.0937 -9.5625,0.0937 -5.625,0 -8.4375,-0.46875 -2.71875,-0.5625 -2.71875,-2.15625 0,-0.46875 1.125,-2.53125 1.21875,-2.15625 3.09375,-4.96875 1.875,-2.90625 4.21875,-6.09375 2.4375,-3.28125 4.78125,-6 2.34375,-2.71875 4.5,-4.5 2.15625,-1.875 3.5625,-1.96875 z"
         id="path877" />
      <path
         d="m 865.89352,445.45618 q -0.1875,2.53125 -0.65625,7.5 -0.46875,4.875 -1.125,11.15625 -0.5625,6.1875 -1.21875,13.03125 -0.65625,6.84375 -1.3125,13.125 -0.5625,6.1875 -1.03125,11.25 -0.46875,5.0625 -0.65625,7.59375 -1.96875,19.96875 -6.75,34.3125 -4.6875,14.25 -12.375,23.34375 -7.6875,9.09375 -18.46875,13.3125 -10.6875,4.3125 -24.75,4.3125 -9.65625,0 -18.1875,-3.5625 -8.53125,-3.46875 -14.90625,-9.84375 -6.375,-6.375 -10.125,-15.28125 -3.65625,-9 -3.65625,-19.96875 0,-1.40625 0.1875,-5.0625 0.28125,-3.75 0.65625,-9.09375 0.46875,-5.34375 0.9375,-12.09375 0.5625,-6.84375 1.125,-14.53125 l 1.125,-15.5625 q 0.5625,-8.53125 0.84375,-14.15625 0.28125,-5.71875 0.5625,-9.1875 0.375,-3.46875 1.03125,-5.0625 0.65625,-1.59375 2.0625,-2.0625 l 31.96875,-7.125 q 1.21875,-0.375 2.53125,-0.375 1.5,0 1.96875,0.84375 0.5625,0.84375 0.5625,3.1875 l -7.125,73.875 q -0.1875,3.28125 -0.65625,7.125 -0.46875,3.84375 -0.46875,7.875 0,2.4375 0.5625,5.34375 0.65625,2.90625 2.25,5.53125 1.59375,2.53125 4.3125,4.3125 2.8125,1.6875 7.21875,1.6875 5.34375,0 8.625,-2.25 3.28125,-2.34375 5.25,-6.09375 1.96875,-3.84375 2.8125,-8.625 0.9375,-4.875 1.5,-9.9375 0.46875,-5.90625 1.125,-13.875 0.65625,-7.96875 1.3125,-17.0625 l 2.71875,-37.40625 q 0.1875,-1.6875 0.1875,-2.8125 0.0937,-1.125 0.28125,-1.875 0.1875,-0.75 0.75,-1.125 0.65625,-0.375 1.96875,-0.5625 l 31.96875,-7.78125 q 1.21875,-0.375 2.53125,-0.375 1.3125,0 1.875,0.84375 0.65625,0.75 0.65625,3.1875 z"
         id="path879" />
      <path
         d="m 878.64352,582.51868 4.6875,-64.125 q 2.34375,-32.25 3.46875,-47.34375 1.125,-15.09375 1.125,-15 0.0937,-1.6875 0.1875,-2.8125 0.0937,-1.125 0.375,-1.875 0.28125,-0.75 0.75,-1.125 0.46875,-0.375 1.40625,-0.5625 l 32.4375,-7.78125 q 1.21875,-0.375 2.53125,-0.375 1.3125,0 1.78125,0.84375 0.46875,0.75 0.46875,3.1875 -0.65625,5.8125 -1.03125,10.875 -0.375,5.0625 -0.65625,9.65625 -0.1875,4.59375 -0.375,8.90625 -0.1875,4.21875 -0.46875,8.4375 -0.5625,4.59375 -1.03125,9.1875 -0.375,4.59375 -0.75,9.5625 -0.375,4.875 -0.84375,10.40625 -0.375,5.4375 -0.9375,11.90625 l -4.125,49.40625 q -0.0937,0.84375 -0.375,1.6875 -0.1875,0.75 -1.21875,1.21875 -0.0937,0 -1.125,0.375 -1.03125,0.375 -2.71875,1.03125 -1.6875,0.5625 -3.9375,1.21875 -2.25,0.65625 -4.78125,1.21875 -4.21875,0.9375 -7.40625,1.875 -3.09375,0.9375 -5.53125,1.6875 -2.4375,0.84375 -4.5,1.3125 -2.0625,0.46875 -4.125,0.46875 -1.40625,0 -2.34375,-0.75 -0.9375,-0.75 -0.9375,-2.71875 z"
         id="path881" />
    </g>
    <text
       xml:space="preserve"
       style="font-style:normal;font-variant:normal;font-weight:normal;font-stretch:normal;font-size:192px;line-height:1.25;font-family:'Carter One';-inkscape-font-specification:'Carter One';display:none;fill:#000000"
       x="86.421875"
       y="578.32812"
       id="text786"
       sodipodi:insensitive="true"><tspan
         sodipodi:role="line"
         id="tspan784"
         x="0"
         y="0"
         style="font-size:192px;fill:#000000">VBAN- UI</tspan></text>
  </g>
</svg>
